<?xml version="1.0" encoding="UTF-8"?>
<svg version="1.1" xmlns="http://www.w3.org/2000/svg" width="512" height="512">
<path d="M0 0 C0.75345703 0.21430664 1.50691406 0.42861328 2.28320312 0.64941406 C9.28542316 2.69644605 16.08456547 4.99734814 22.6328125 8.234375 C31.29193053 12.50827477 36.8288504 14.9482685 46.64453125 12.734375 C69.07296083 7.82570822 96.17442942 16.37888507 115.45703125 28.015625 C118.38236334 29.923287 121.20298301 31.9094249 124 34 C125.27037109 34.93779297 125.27037109 34.93779297 126.56640625 35.89453125 C141.76781215 47.57511074 151.97605915 60.72124818 158 79 C158.29648437 79.89074219 158.59296875 80.78148438 158.8984375 81.69921875 C167.95253317 111.68530787 162.61826665 144.91476439 155.3046875 174.60546875 C154.86959011 176.40359707 154.43466469 178.20176703 154 180 C153.57847656 181.71703125 153.57847656 181.71703125 153.1484375 183.46875 C152.95845319 186.70848244 153.7593672 187.79577139 155.75 190.3125 C162.3876414 199.44503213 163.7309039 209.93012823 163 221 C160.70173886 235.35055974 154.04872363 246.96709607 142.5 255.9375 C136.04968542 260.13839772 129.59124132 261.41406771 122 261 C121.87625 261.53625 121.7525 262.0725 121.625 262.625 C116.29392402 282.88308871 103.26712292 302.1313102 89.3125 317.375 C88.84642334 317.88619385 88.38034668 318.3973877 87.90014648 318.92407227 C85.51138602 321.50369499 83.06513356 323.76265981 80.3125 325.9375 C77.627012 329.49395707 77.73213894 330.51541706 77.82421875 334.83984375 C77.8555188 336.58648315 77.8555188 336.58648315 77.88745117 338.3684082 C77.92459229 339.5668335 77.9617334 340.76525879 78 342 C78.03391846 343.1036792 78.06783691 344.2073584 78.1027832 345.34448242 C78.2225179 348.77191956 78.36024669 352.19832447 78.5 355.625 C79.03786965 369.75445749 79.10474525 383.86227965 79 398 C79.96198807 398.23550064 80.92397614 398.47100128 81.91511536 398.71363831 C91.87282009 401.16755042 101.76331849 403.81782782 111.63671875 406.58984375 C113.17454068 407.02057005 114.71236732 407.45127951 116.25019836 407.88197327 C119.44308444 408.77692765 122.63539615 409.67389959 125.82739258 410.57202148 C129.87980242 411.71178087 133.93438706 412.84359191 137.98953533 413.97356319 C141.15579566 414.85733405 144.32044013 415.74678732 147.48468971 416.63772774 C148.97775796 417.05712966 150.47139228 417.47452275 151.96564293 417.88969231 C180.96367514 425.95506525 204.6759155 438.27360699 219.95703125 465.16796875 C227.47433475 478.9376283 230 492.39629251 230 508 C88.76 508 -52.48 508 -198 508 C-198 493.97138916 -198 493.97138916 -196.375 487.625 C-196.19678711 486.90803955 -196.01857422 486.1910791 -195.83496094 485.45239258 C-189.34024408 460.62466151 -173.69464179 442.26731113 -152.109375 429.2578125 C-146.75611385 426.37183652 -141.20104964 424.29078267 -135.41015625 422.47265625 C-134.21862442 422.09787895 -134.21862442 422.09787895 -133.00302124 421.7155304 C-118.63694092 417.2749793 -104.10234803 413.37956046 -89.61035156 409.37506104 C-86.2692162 408.45075136 -82.92916952 407.52254185 -79.58912849 406.59428692 C-76.35703873 405.69637416 -73.12443636 404.80031921 -69.89165878 403.90488625 C-68.35498688 403.4791258 -66.81843762 403.05292241 -65.28201675 402.62625694 C-63.14700227 402.03378009 -61.01134598 401.44367683 -58.87548828 400.85424805 C-57.05949631 400.35177803 -57.05949631 400.35177803 -55.20681763 399.8391571 C-52.4793858 399.12544524 -49.77086522 398.51409212 -47 398 C-46.95101562 397.19820313 -46.90203125 396.39640625 -46.8515625 395.5703125 C-46.38427769 388.46436077 -45.77252077 381.39131281 -45 374.3125 C-44.8755249 373.14581787 -44.8755249 373.14581787 -44.74853516 371.95556641 C-44.39766505 368.82530877 -43.9991971 365.99759129 -43 363 C-43.54785156 362.87625 -44.09570312 362.7525 -44.66015625 362.625 C-57.12997088 359.38082058 -68.52375668 352.64895224 -78 344 C-78.4753418 343.56703613 -78.95068359 343.13407227 -79.44042969 342.68798828 C-105.87226455 318.30177712 -117.41739336 283.66589752 -123 249 C-123.13132324 248.18821289 -123.26264648 247.37642578 -123.39794922 246.54003906 C-125.74455342 231.15711055 -125.20077996 215.51411305 -125 200 C-125.59530518 199.82331787 -126.19061035 199.64663574 -126.80395508 199.46459961 C-135.94981468 196.61110628 -141.69217572 191.99845887 -146.375 183.5 C-149.6910098 176.28010055 -150.84481511 168.79542037 -152 161 C-152.330417 158.99951613 -152.66265229 156.9993268 -153 155 C-156.96552655 164.98462936 -156.97134909 172.98136934 -153 183 C-149.31554229 191.24279321 -144.28223868 197.56419548 -138 204 C-138.33 204.66 -138.66 205.32 -139 206 C-151.13649737 206.6946167 -160.49654772 204.9301804 -169.9453125 196.9609375 C-181.86408137 185.58599079 -188.83317551 169.68572591 -189.45141602 153.35253906 C-189.97870552 122.39349103 -174.30267092 94.30698664 -155 71 C-154.54544434 70.44924805 -154.09088867 69.89849609 -153.62255859 69.33105469 C-137.84948646 50.3384361 -120.65900575 32.02599166 -101 17 C-99.84757812 16.1028125 -99.84757812 16.1028125 -98.671875 15.1875 C-70.79015219 -5.49298314 -32.93316449 -9.51499079 0 0 Z " fill="#FDB3A8" transform="translate(240,4)"/>
<path d="M0 0 C0.75345703 0.21430664 1.50691406 0.42861328 2.28320312 0.64941406 C9.28542316 2.69644605 16.08456547 4.99734814 22.6328125 8.234375 C31.29193053 12.50827477 36.8288504 14.9482685 46.64453125 12.734375 C69.07296083 7.82570822 96.17442942 16.37888507 115.45703125 28.015625 C118.38236334 29.923287 121.20298301 31.9094249 124 34 C125.27037109 34.93779297 125.27037109 34.93779297 126.56640625 35.89453125 C141.76781215 47.57511074 151.97605915 60.72124818 158 79 C158.29648437 79.89074219 158.59296875 80.78148438 158.8984375 81.69921875 C168.67851196 114.08966339 163.29251713 154.71594537 152 186 C151.32517578 185.41992188 151.32517578 185.41992188 150.63671875 184.828125 C141.70499397 177.59682879 132.37855074 174.93385161 120.9453125 175.48828125 C112.60485939 176.57006279 105.1896989 180.65283739 99.52734375 186.8828125 C94.97304312 193.19593511 91.72304946 200.41858239 90 208 C74.41207424 206.2055137 64.29866489 199.76422791 54.25 187.75 C50.75569723 183.10191802 48.5660814 177.98060206 46.359375 172.625 C45.22503593 169.68778599 45.22503593 169.68778599 42 169 C33.80057366 168.34188815 26.95667763 168.77269159 19.40234375 172.125 C16.781218 173.07968645 14.76728047 173.15784844 12 173 C11.67 171.35 11.34 169.7 11 168 C12.58074564 167.18247697 14.16471223 166.37118003 15.75 165.5625 C16.63171875 165.11003906 17.5134375 164.65757812 18.421875 164.19140625 C21.98814825 162.54335573 25.20118379 161.89084631 29.109375 161.68359375 C30.24052734 161.62075195 30.24052734 161.62075195 31.39453125 161.55664062 C32.17183594 161.51732422 32.94914063 161.47800781 33.75 161.4375 C34.54277344 161.39431641 35.33554687 161.35113281 36.15234375 161.30664062 C38.10137815 161.20097009 40.05066748 161.10002034 42 161 C41.72736328 160.15695313 41.72736328 160.15695313 41.44921875 159.296875 C39.54509161 152.93025503 38.35483091 146.5600201 37.375 140 C37.25213623 139.18241211 37.12927246 138.36482422 37.00268555 137.52246094 C35.83075374 129.3843597 34.87591918 121.33038409 35.10546875 113.09765625 C35.7108942 100.35592596 35.7108942 100.35592596 30.19799805 89.39819336 C27.6219829 87.00609362 24.91153112 84.96328812 22 83 C21.04609375 82.30003906 20.0921875 81.60007812 19.109375 80.87890625 C16.472916 79.06728228 13.82288517 77.50135671 11 76 C10.20207031 75.56816406 9.40414062 75.13632813 8.58203125 74.69140625 C0.68251241 70.96716327 -7.79844299 70.62683957 -16.2109375 72.84765625 C-23.52940098 75.62265204 -29.24470213 79.76537528 -35 85 C-35.78761719 85.69480469 -36.57523438 86.38960938 -37.38671875 87.10546875 C-51.13160514 99.96501625 -60.69091267 116.83186308 -70 133 C-70.33076538 133.57387451 -70.66153076 134.14774902 -71.00231934 134.73901367 C-79.2819611 148.71862065 -79.2819611 148.71862065 -87 163 C-86.50628906 162.84144531 -86.01257813 162.68289062 -85.50390625 162.51953125 C-74.3300856 160.2010942 -62.22386049 161.30507608 -52.58984375 167.56640625 C-50.27700755 169.25922287 -48.02904206 170.97095794 -46 173 C-45.95936168 174.66617115 -45.957279 176.33388095 -46 178 C-50.12081656 178.32419011 -51.98423288 177.67311164 -55.25 175.1875 C-64.62685888 168.66379719 -73.69144128 167.83524878 -84.92578125 169.41015625 C-93.73656811 171.69074182 -97.18747275 178.07944635 -101.85205078 185.28173828 C-106.22294356 191.82413372 -111.27158734 197.69662995 -119 200 C-126.05420697 201.02399779 -131.14252323 198.96706694 -137 195 C-149.23080451 184.5408478 -151.06081998 170.07200079 -153 155 C-153.49853274 156.40531723 -153.98916779 157.81343739 -154.4765625 159.22265625 C-154.75064941 160.00648682 -155.02473633 160.79031738 -155.30712891 161.59790039 C-158.02115444 171.00709604 -154.63386838 180.10056514 -150.375 188.5 C-147.04638872 194.39231442 -142.70852036 199.17638247 -138 204 C-138.33 204.66 -138.66 205.32 -139 206 C-151.13649737 206.6946167 -160.49654772 204.9301804 -169.9453125 196.9609375 C-181.86408137 185.58599079 -188.83317551 169.68572591 -189.45141602 153.35253906 C-189.97870552 122.39349103 -174.30267092 94.30698664 -155 71 C-154.54544434 70.44924805 -154.09088867 69.89849609 -153.62255859 69.33105469 C-137.84948646 50.3384361 -120.65900575 32.02599166 -101 17 C-99.84757812 16.1028125 -99.84757812 16.1028125 -98.671875 15.1875 C-70.79015219 -5.49298314 -32.93316449 -9.51499079 0 0 Z " fill="#352120" transform="translate(240,4)"/>
<path d="M0 0 C-0.01571045 1.69358643 -0.01571045 1.69358643 -0.03173828 3.42138672 C-0.06822319 7.65198536 -0.09100312 11.88257038 -0.10986328 16.11328125 C-0.11985643 17.93654731 -0.13345551 19.75979762 -0.15087891 21.58300781 C-0.4665795 44.14143897 -0.4665795 44.14143897 10.20703125 63.4375 C21.71866809 73.46942753 40.10353435 73.91190564 54.66455078 73.16845703 C70.66280593 72.0144955 90.38395885 68.61604115 102.18359375 56.81640625 C102.78300781 56.21699219 103.38242187 55.61757813 104 55 C104.66 55 105.32 55 106 55 C106.26296875 54.42121094 106.5259375 53.84242188 106.796875 53.24609375 C108.06060061 50.88686574 109.51616016 49.09702828 111.25 47.0625 C122.02714976 33.29918167 123.76877718 16.78044077 126 0 C136.93420627 2.67676146 147.79898454 5.54708532 158.63671875 8.58984375 C160.17454068 9.02057005 161.71236732 9.45127951 163.25019836 9.88197327 C166.44308444 10.77692765 169.63539615 11.67389959 172.82739258 12.57202148 C176.87980242 13.71178087 180.93438706 14.84359191 184.98953533 15.97356319 C188.15579566 16.85733405 191.32044013 17.74678732 194.48468971 18.63772774 C195.97775796 19.05712966 197.47139228 19.47452275 198.96564293 19.88969231 C227.96367514 27.95506525 251.6759155 40.27360699 266.95703125 67.16796875 C274.47433475 80.9376283 277 94.39629251 277 110 C135.76 110 -5.48 110 -151 110 C-151 95.97138916 -151 95.97138916 -149.375 89.625 C-149.19678711 88.90803955 -149.01857422 88.1910791 -148.83496094 87.45239258 C-142.34024408 62.62466151 -126.69464179 44.26731113 -105.109375 31.2578125 C-99.75875816 28.37326208 -94.20572969 26.29105946 -88.41796875 24.47265625 C-87.6240271 24.22280472 -86.83008545 23.97295319 -86.01208496 23.7155304 C-71.6077015 19.26359556 -57.02701036 15.38006633 -42.49377441 11.37506104 C-35.89534351 9.55580106 -29.29877468 7.72979473 -22.7019043 5.90488625 C-20.41157062 5.27182704 -18.12086663 4.64012391 -15.83007812 4.00871277 C-14.43619495 3.62390192 -13.04231459 3.23908092 -11.6484375 2.85424805 C-10.43333496 2.51926804 -9.21823242 2.18428802 -7.96630859 1.8391571 C-1.46513319 0 -1.46513319 0 0 0 Z " fill="#352120" transform="translate(193,402)"/>
<path d="M0 0 C0.33 0 0.66 0 1 0 C2.26264103 6.56510363 2.18604053 13.07211427 2.18530273 19.7277832 C2.18746282 21.90010984 2.2055742 24.07190538 2.22460938 26.24414062 C2.3148165 48.68464026 -1.57571877 71.37294987 -18 88 C-35.73889664 103.49030411 -59.53664043 108.33818669 -82.55126953 107.1953125 C-93.49106855 106.32274628 -105.79617343 104.89927617 -114 97 C-114.56589844 96.47535156 -115.13179687 95.95070313 -115.71484375 95.41015625 C-125.48527151 85.25751127 -125.18684976 71.73403322 -125.18530273 58.53637695 C-125.18749868 56.43876114 -125.20573485 54.34166449 -125.22460938 52.24414062 C-125.22754268 50.89062677 -125.2295279 49.53711046 -125.23046875 48.18359375 C-125.23663208 46.36686157 -125.23663208 46.36686157 -125.24291992 44.51342773 C-124.97833564 40.68666154 -124.17463812 37.63622803 -123 34 C-122.15824219 34.2165625 -121.31648437 34.433125 -120.44921875 34.65625 C-85.29938159 42.54032562 -50.65487169 34.15513644 -20.375 15.6875 C-13.40698146 11.10942684 -5.91115609 5.91115609 0 0 Z " fill="#FDB3A8" transform="translate(317,369)"/>
<path d="M0 0 C0.3817871 3.55198356 0.65440863 7.10357495 0.86230469 10.66992188 C0.96229468 12.36195108 1.07384413 14.05330964 1.19238281 15.74414062 C2.33323447 33.47122026 2.33323447 33.47122026 -0.55078125 38.94140625 C-2.89865725 41.0660838 -5.22375201 42.48041022 -8 44 C-10.0259312 45.47217667 -12.04643245 46.95184424 -14.0625 48.4375 C-31.54030103 60.39815638 -50.89746276 69.78816729 -72 73 C-73.17949219 73.18175781 -74.35898438 73.36351562 -75.57421875 73.55078125 C-91.28819162 75.43586015 -107.64911268 74.80375969 -123 71 C-123.33 71 -123.66 71 -124 71 C-123.55321527 62.3700002 -122.9436885 53.77874205 -122 45.1875 C-121.9170166 44.41744629 -121.8340332 43.64739258 -121.74853516 42.85400391 C-121.39650058 39.75762121 -120.9885434 36.9656302 -120 34 C-119.10023438 34.144375 -118.20046875 34.28875 -117.2734375 34.4375 C-78.35558849 40.05290106 -42.7077586 31.19227587 -11 8 C-8.21005171 5.84476495 -5.46377908 3.65787494 -2.7578125 1.3984375 C-1 0 -1 0 0 0 Z " fill="#F47D71" transform="translate(317,333)"/>
<path d="M0 0 C4.0124552 0.81886841 6.44494385 2.5827666 9.0625 5.625 C12.31607029 11.1560695 12.92215472 16.35907225 12.0625 22.625 C10.73202533 27.20297736 8.90129669 30.67285241 5.75 34.25 C1.97835189 36.17968043 0.07196312 35.913756 -3.9375 34.625 C-8.13203593 30.52367598 -10.63065654 26.58584011 -11.23828125 20.72265625 C-11.26768775 13.10637228 -10.4795578 8.78539618 -5.625 2.75 C-2.9375 0.625 -2.9375 0.625 0 0 Z " fill="#392423" transform="translate(176.9375,189.375)"/>
<path d="M0 0 C2.475 0.495 2.475 0.495 5 1 C5.80932553 3.81150371 6.2232789 5.43024947 5.13891602 8.19726562 C4.45333618 9.29071289 4.45333618 9.29071289 3.75390625 10.40625 C2.9973877 11.63746582 2.9973877 11.63746582 2.22558594 12.89355469 C1.67676758 13.75368164 1.12794922 14.61380859 0.5625 15.5 C0.0149707 16.38333008 -0.53255859 17.26666016 -1.09667969 18.17675781 C-2.20077745 19.95561796 -3.31091382 21.73074519 -4.42724609 23.50195312 C-6.21112463 26.33533487 -7.96174037 29.18783439 -9.70727539 32.04492188 C-11.12865937 34.36918919 -12.56365827 36.6849551 -14 39 C-12.47934339 39.41731117 -10.95845693 39.83378471 -9.4375 40.25 C-8.4475 40.52199219 -7.4575 40.79398437 -6.4375 41.07421875 C-3.9616008 41.74102342 -1.48512937 42.38932244 1 43.01953125 C1.67345459 43.19258789 2.34690918 43.36564453 3.04077148 43.54394531 C4.99609645 44.0454681 6.95310097 44.54042857 8.91015625 45.03515625 C12 46 12 46 14 48 C13.44444444 52.55555556 13.44444444 52.55555556 12 54 C4.37854868 53.55167933 -2.72724146 51.19874095 -10 49 C-11.24007812 48.63132812 -12.48015625 48.26265625 -13.7578125 47.8828125 C-22.85691824 45.14308176 -22.85691824 45.14308176 -24 44 C-23.62908748 38.81357871 -22.40969003 35.38802643 -19.6484375 31.015625 C-18.96136719 29.91476563 -18.27429688 28.81390625 -17.56640625 27.6796875 C-16.83620761 26.53628579 -16.10573782 25.3930572 -15.375 24.25 C-14.32505859 22.57550781 -14.32505859 22.57550781 -13.25390625 20.8671875 C-11.18235687 17.5696191 -9.09400184 14.28334728 -7 11 C-5.96794434 9.37674805 -5.96794434 9.37674805 -4.91503906 7.72070312 C-3.27814656 5.1462052 -1.6397908 2.57265244 0 0 Z " fill="#F47F73" transform="translate(204,221)"/>
<path d="M0 0 C4.08912129 3.18042767 5.98731771 5.93658857 7 11 C7.67855147 18.40143066 7.66158308 24.90642734 3 31 C-0.05955599 33.72879318 -1.44761627 34 -5.5625 34 C-9.69837983 32.79683496 -10.77415369 31.62730509 -13 28 C-16.07513968 21.6276889 -16.40403232 13.3785544 -14.2421875 6.63671875 C-10.65780691 0.0465387 -7.31775126 -2.05410562 0 0 Z " fill="#382322" transform="translate(279,191)"/>
<path d="M0 0 C2.58175218 1.96729516 4.59811839 4.05604861 6 7 C5.6484375 9.23046875 5.6484375 9.23046875 5 11 C3.68 11 2.36 11 1 11 C0.34 9.35 -0.32 7.7 -1 6 C-8.18582078 5.26271376 -8.18582078 5.26271376 -14.5 8.1875 C-16.8311116 10.81000055 -18.04489499 12.65713246 -19 16 C-18.48050781 16.21914062 -17.96101563 16.43828125 -17.42578125 16.6640625 C-11.64485371 19.29272826 -7.90968052 22.18063897 -5 28 C-4.17470847 34.34295492 -4.74396554 39.12679197 -8.515625 44.37109375 C-11.90033604 48.08536876 -14.95747832 48.9495554 -19.875 49.1875 C-20.90625 49.125625 -21.9375 49.06375 -23 49 C-23.33 47.35 -23.66 45.7 -24 44 C-22.9275 43.71125 -21.855 43.4225 -20.75 43.125 C-17.90184789 42.27055437 -15.51227358 41.54601451 -13 40 C-11.12981646 36.25963292 -11.32184027 32.06256066 -12 28 C-14.68917405 24.07452781 -18.66957469 22.73217013 -23 21 C-23.33 25.62 -23.66 30.24 -24 35 C-25.98 35.495 -25.98 35.495 -28 36 C-29.75141618 34.24858382 -29.21395448 31.8790046 -29.25 29.5 C-29.13618109 19.88230249 -26.17538483 12.4104618 -20 5 C-14.02466871 -0.43211935 -7.81683511 -2.43939165 0 0 Z " fill="#F47F73" transform="translate(378,198)"/>
<path d="M0 0 C0.495 1.98 0.495 1.98 1 4 C-17.92324082 18.36110127 -46.07947022 19.50616964 -68.78515625 19.30078125 C-69.74301025 19.29216064 -70.70086426 19.28354004 -71.68774414 19.2746582 C-74 19 -74 19 -76 17 C-75.625 14.875 -75.625 14.875 -75 13 C-74.37134033 12.98018066 -73.74268066 12.96036133 -73.0949707 12.93994141 C-61.61147502 12.55971407 -50.30678243 12.18509803 -39 10 C-37.85144531 9.81824219 -36.70289063 9.63648438 -35.51953125 9.44921875 C-27.22530368 8.02460432 -19.88559634 5.65107794 -12.1652832 2.3371582 C-7.92240857 0.55453006 -4.70081025 -0.39359075 0 0 Z " fill="#F44B47" transform="translate(267,286)"/>
</svg>
